<svg width="120" height="120" viewBox="0 0 120 120" fill="none" xmlns="http://www.w3.org/2000/svg">
    <g transform="translate(60 60) scale(1.18) translate(-60 -60)">
        
        <path d="M15 20 H 45 V 95 C 45 98 43 100 40 100 H 20 C 17 100 15 98 15 95 V 20 Z" 
              fill="white" stroke="#1e293b" stroke-width="6" stroke-linejoin="round"/>
              
        <path d="M45 20 H 75 V 95 C 75 98 73 100 70 100 H 50 C 47 100 45 98 45 95 V 20 Z" 
              fill="white" stroke="#1e293b" stroke-width="6" stroke-linejoin="round"/>
              
        <path d="M75 20 H 105 V 95 C 105 98 103 100 100 100 H 80 C 77 100 75 98 75 95 V 20 Z" 
              fill="white" stroke="#1e293b" stroke-width="6" stroke-linejoin="round"/>

        <rect x="37" y="20" width="16" height="55" rx="3" fill="#1e293b"/>
        
        <rect x="67" y="20" width="16" height="55" rx="3" fill="#1e293b"/>

        <circle cx="60" cy="86" r="9" fill="#4f46e5"/>
    </g>
</svg>
